<svg width="72" height="57" viewBox="0 0 72 57" fill="none" xmlns="http://www.w3.org/2000/svg">
<path d="M32.2203 0H45.2645L40.4074 3.17647L38.8605 4.36585C35.4645 6.97689 32.3639 9.951 29.6138 13.2353C26.8642 16.5189 24.4944 20.1027 22.5495 23.9184L19.1891 30.5114C19.1414 30.605 19 30.5711 19 30.466V13.4154C19 11.8939 19.2497 10.3827 19.7393 8.94208L19.7564 8.89161C20.2088 7.5602 20.8655 6.30725 21.703 5.17766L21.8781 4.94152C22.8283 3.65985 24.0227 2.57889 25.3926 1.76093C26.7542 0.947861 28.2625 0.410589 29.8316 0.179711L29.898 0.169941C30.6669 0.0567983 31.4431 0 32.2203 0Z" fill="url(#paint0_linear_2223_284)"/>
<path d="M24.2169 22.2353C22.835 24.1745 20.3926 28.8631 19.4183 30.7655C19.3638 30.8721 19.5081 30.9669 19.5843 30.8745C20.7853 29.4164 23.5779 26.0736 25.4762 24.1765C27.3566 22.2972 27.4513 22.1519 29.5174 20.4706L29.5832 20.417C32.429 18.1011 32.5329 18.0166 35.9101 16.4118C37.6713 15.5748 42.746 13.2353 42.746 13.2353L47.409 11.2341C48.1352 10.9224 48.8193 10.5206 49.4453 10.0382L49.991 9.61752C50.6703 9.09396 51.2328 8.43434 51.6424 7.68088C52.1775 6.6966 52.4341 5.58502 52.3845 4.46578L52.2829 2.17301C52.2816 2.14413 52.3079 2.11151 52.2797 2.11782C47.3835 3.21151 42.8611 5.83613 38.6247 8.52336C38.2994 8.7297 37.9627 8.94696 37.6126 9.17647C34.4241 11.2669 31.681 13.581 29.5174 15.7059C27.3605 17.824 25.9798 19.7615 24.2336 22.2119L24.2169 22.2353Z" fill="url(#paint1_linear_2223_284)"/>
<path d="M25.8928 26.0487L19.9092 32.5957C19.8517 32.6586 19.9302 32.7522 20.0021 32.7065L20.3331 32.4965C25.7122 29.0828 31.5235 26.4034 37.6126 24.5294L42.8067 23.5008C45.2567 23.0156 47.5753 22.0145 49.6085 20.564C50.1848 20.1529 50.6737 19.6315 51.0469 19.03L51.5215 18.2651C52.4879 16.7076 53 14.9111 53 13.0781V10.1469C53 10.1147 52.9609 10.0987 52.9383 10.1217C50.0328 13.0859 46.3958 15.23 42.3954 16.3368L41.4868 16.5882L40.3236 16.9424C37.6326 17.7616 35.0602 18.9289 32.6718 20.4147C30.1652 21.974 27.8843 23.8697 25.8928 26.0487Z" fill="url(#paint2_linear_2223_284)"/>
<path d="M22.4268 32.7534L22.1266 32.9543C22.1061 32.968 22.1158 33 22.1405 33H44.9997C46.3487 33 47.6711 32.6236 48.8179 31.913C49.9075 31.238 50.7986 30.2862 51.4004 29.1545L51.5691 28.8375C52.271 27.5178 52.6159 26.0376 52.5698 24.5435L52.4603 21C50.9675 23.2529 48.6131 24.792 45.9505 25.2554L38.9683 26.4706C33.0494 27.2835 27.3929 29.4319 22.4268 32.7534Z" fill="url(#paint3_linear_2223_284)"/>
<path d="M12.7393 56.16C11.5926 56.16 10.5726 55.92 9.6793 55.44C8.7993 54.96 8.0993 54.3067 7.5793 53.48C7.07263 52.64 6.8193 51.6867 6.8193 50.62C6.8193 49.54 7.07263 48.5867 7.5793 47.76C8.0993 46.92 8.7993 46.2667 9.6793 45.8C10.5726 45.32 11.5926 45.08 12.7393 45.08C13.8726 45.08 14.886 45.32 15.7793 45.8C16.6726 46.2667 17.3726 46.9133 17.8793 47.74C18.386 48.5667 18.6393 49.5267 18.6393 50.62C18.6393 51.6867 18.386 52.64 17.8793 53.48C17.3726 54.3067 16.6726 54.96 15.7793 55.44C14.886 55.92 13.8726 56.16 12.7393 56.16ZM12.7393 53.6C13.2593 53.6 13.726 53.48 14.1393 53.24C14.5526 53 14.8793 52.66 15.1193 52.22C15.3593 51.7667 15.4793 51.2333 15.4793 50.62C15.4793 49.9933 15.3593 49.46 15.1193 49.02C14.8793 48.58 14.5526 48.24 14.1393 48C13.726 47.76 13.2593 47.64 12.7393 47.64C12.2193 47.64 11.7526 47.76 11.3393 48C10.926 48.24 10.5926 48.58 10.3393 49.02C10.0993 49.46 9.9793 49.9933 9.9793 50.62C9.9793 51.2333 10.0993 51.7667 10.3393 52.22C10.5926 52.66 10.926 53 11.3393 53.24C11.7526 53.48 12.2193 53.6 12.7393 53.6ZM23.1248 56V41.16H26.2448V56H23.1248ZM38.1404 56V53.9L37.9404 53.44V49.68C37.9404 49.0133 37.7337 48.4933 37.3204 48.12C36.9204 47.7467 36.3004 47.56 35.4604 47.56C34.8871 47.56 34.3204 47.6533 33.7604 47.84C33.2137 48.0133 32.7471 48.2533 32.3604 48.56L31.2404 46.38C31.8271 45.9667 32.5337 45.6467 33.3604 45.42C34.1871 45.1933 35.0271 45.08 35.8804 45.08C37.5204 45.08 38.7937 45.4667 39.7004 46.24C40.6071 47.0133 41.0604 48.22 41.0604 49.86V56H38.1404ZM34.8604 56.16C34.0204 56.16 33.3004 56.02 32.7004 55.74C32.1004 55.4467 31.6404 55.0533 31.3204 54.56C31.0004 54.0667 30.8404 53.5133 30.8404 52.9C30.8404 52.26 30.9937 51.7 31.3004 51.22C31.6204 50.74 32.1204 50.3667 32.8004 50.1C33.4804 49.82 34.3671 49.68 35.4604 49.68H38.3204V51.5H35.8004C35.0671 51.5 34.5604 51.62 34.2804 51.86C34.0137 52.1 33.8804 52.4 33.8804 52.76C33.8804 53.16 34.0337 53.48 34.3404 53.72C34.6604 53.9467 35.0937 54.06 35.6404 54.06C36.1604 54.06 36.6271 53.94 37.0404 53.7C37.4537 53.4467 37.7537 53.08 37.9404 52.6L38.4204 54.04C38.1937 54.7333 37.7804 55.26 37.1804 55.62C36.5804 55.98 35.8071 56.16 34.8604 56.16ZM60.0641 45.08C60.9175 45.08 61.6708 45.2533 62.3241 45.6C62.9908 45.9333 63.5108 46.4533 63.8841 47.16C64.2708 47.8533 64.4641 48.7467 64.4641 49.84V56H61.3441V50.32C61.3441 49.4533 61.1641 48.8133 60.8041 48.4C60.4441 47.9867 59.9375 47.78 59.2841 47.78C58.8308 47.78 58.4241 47.8867 58.0641 48.1C57.7041 48.3 57.4241 48.6067 57.2241 49.02C57.0241 49.4333 56.9241 49.96 56.9241 50.6V56H53.8041V50.32C53.8041 49.4533 53.6241 48.8133 53.2641 48.4C52.9175 47.9867 52.4175 47.78 51.7641 47.78C51.3108 47.78 50.9041 47.8867 50.5441 48.1C50.1841 48.3 49.9041 48.6067 49.7041 49.02C49.5041 49.4333 49.4041 49.96 49.4041 50.6V56H46.2841V45.24H49.2641V48.18L48.7041 47.32C49.0775 46.5867 49.6041 46.0333 50.2841 45.66C50.9775 45.2733 51.7641 45.08 52.6441 45.08C53.6308 45.08 54.4908 45.3333 55.2241 45.84C55.9708 46.3333 56.4641 47.0933 56.7041 48.12L55.6041 47.82C55.9641 46.98 56.5375 46.3133 57.3241 45.82C58.1241 45.3267 59.0375 45.08 60.0641 45.08Z" fill="url(#paint4_linear_2223_284)"/>
<defs>
<linearGradient id="paint0_linear_2223_284" x1="36" y1="0" x2="36" y2="33" gradientUnits="userSpaceOnUse">
<stop stop-color="#5C3A00"/>
<stop offset="0.2" stop-color="#C99700" stop-opacity="0.870588"/>
<stop offset="0.4" stop-color="#FFD75A"/>
<stop offset="0.5" stop-color="#C99700"/>
<stop offset="0.65" stop-color="#C99700"/>
<stop offset="1" stop-color="#7A4E00"/>
</linearGradient>
<linearGradient id="paint1_linear_2223_284" x1="36" y1="0" x2="36" y2="33" gradientUnits="userSpaceOnUse">
<stop stop-color="#5C3A00"/>
<stop offset="0.2" stop-color="#C99700" stop-opacity="0.870588"/>
<stop offset="0.4" stop-color="#FFD75A"/>
<stop offset="0.5" stop-color="#C99700"/>
<stop offset="0.65" stop-color="#C99700"/>
<stop offset="1" stop-color="#7A4E00"/>
</linearGradient>
<linearGradient id="paint2_linear_2223_284" x1="36" y1="0" x2="36" y2="33" gradientUnits="userSpaceOnUse">
<stop stop-color="#5C3A00"/>
<stop offset="0.2" stop-color="#C99700" stop-opacity="0.870588"/>
<stop offset="0.4" stop-color="#FFD75A"/>
<stop offset="0.5" stop-color="#C99700"/>
<stop offset="0.65" stop-color="#C99700"/>
<stop offset="1" stop-color="#7A4E00"/>
</linearGradient>
<linearGradient id="paint3_linear_2223_284" x1="36" y1="0" x2="36" y2="33" gradientUnits="userSpaceOnUse">
<stop stop-color="#5C3A00"/>
<stop offset="0.2" stop-color="#C99700" stop-opacity="0.870588"/>
<stop offset="0.4" stop-color="#FFD75A"/>
<stop offset="0.5" stop-color="#C99700"/>
<stop offset="0.65" stop-color="#C99700"/>
<stop offset="1" stop-color="#7A4E00"/>
</linearGradient>
<linearGradient id="paint4_linear_2223_284" x1="36" y1="41" x2="36" y2="57" gradientUnits="userSpaceOnUse">
<stop stop-color="#5C3A00"/>
<stop offset="0.2" stop-color="#C99700" stop-opacity="0.870588"/>
<stop offset="0.4" stop-color="#FFD75A"/>
<stop offset="0.5" stop-color="#C99700"/>
<stop offset="0.65" stop-color="#C99700"/>
<stop offset="1" stop-color="#7A4E00"/>
</linearGradient>
</defs>
</svg>
